<svg xmlns="http://www.w3.org/2000/svg" viewBox="0 0 400 300">
  <rect width="400" height="300" rx="20" fill="#1a5fb4"/>
  <text x="200" y="60" text-anchor="middle" font-family="sans-serif" font-size="36" font-weight="bold" fill="#FFD700">JEOPARDY!</text>
  <g transform="translate(20,80)">
    <rect x="0" y="0" width="56" height="36" rx="4" fill="#2871cc"/>
    <text x="28" y="24" text-anchor="middle" font-family="sans-serif" font-size="14" font-weight="bold" fill="#FFD700">$200</text>
    <rect x="60" y="0" width="56" height="36" rx="4" fill="#2871cc"/>
    <text x="88" y="24" text-anchor="middle" font-family="sans-serif" font-size="14" font-weight="bold" fill="#FFD700">$200</text>
    <rect x="120" y="0" width="56" height="36" rx="4" fill="#2871cc"/>
    <text x="148" y="24" text-anchor="middle" font-family="sans-serif" font-size="14" font-weight="bold" fill="#FFD700">$200</text>
    <rect x="180" y="0" width="56" height="36" rx="4" fill="#2871cc"/>
    <text x="208" y="24" text-anchor="middle" font-family="sans-serif" font-size="14" font-weight="bold" fill="#FFD700">$200</text>
    <rect x="240" y="0" width="56" height="36" rx="4" fill="#2871cc"/>
    <text x="268" y="24" text-anchor="middle" font-family="sans-serif" font-size="14" font-weight="bold" fill="#FFD700">$200</text>
    <rect x="300" y="0" width="56" height="36" rx="4" fill="#2871cc"/>
    <text x="328" y="24" text-anchor="middle" font-family="sans-serif" font-size="14" font-weight="bold" fill="#FFD700">$200</text>

    <rect x="0" y="40" width="56" height="36" rx="4" fill="#2871cc"/>
    <text x="28" y="64" text-anchor="middle" font-family="sans-serif" font-size="14" font-weight="bold" fill="#FFD700">$400</text>
    <rect x="60" y="40" width="56" height="36" rx="4" fill="#2871cc"/>
    <text x="88" y="64" text-anchor="middle" font-family="sans-serif" font-size="14" font-weight="bold" fill="#FFD700">$400</text>
    <rect x="120" y="40" width="56" height="36" rx="4" fill="#2871cc"/>
    <text x="148" y="64" text-anchor="middle" font-family="sans-serif" font-size="14" font-weight="bold" fill="#FFD700">$400</text>
    <rect x="180" y="40" width="56" height="36" rx="4" fill="#2871cc"/>
    <text x="208" y="64" text-anchor="middle" font-family="sans-serif" font-size="14" font-weight="bold" fill="#FFD700">$400</text>
    <rect x="240" y="40" width="56" height="36" rx="4" fill="#2871cc"/>
    <text x="268" y="64" text-anchor="middle" font-family="sans-serif" font-size="14" font-weight="bold" fill="#FFD700">$400</text>
    <rect x="300" y="40" width="56" height="36" rx="4" fill="#2871cc"/>
    <text x="328" y="64" text-anchor="middle" font-family="sans-serif" font-size="14" font-weight="bold" fill="#FFD700">$400</text>

    <rect x="0" y="80" width="56" height="36" rx="4" fill="#2871cc"/>
    <text x="28" y="104" text-anchor="middle" font-family="sans-serif" font-size="14" font-weight="bold" fill="#FFD700">$600</text>
    <rect x="60" y="80" width="56" height="36" rx="4" fill="#2871cc"/>
    <text x="88" y="104" text-anchor="middle" font-family="sans-serif" font-size="14" font-weight="bold" fill="#FFD700">$600</text>
    <rect x="120" y="80" width="56" height="36" rx="4" fill="#2871cc"/>
    <text x="148" y="104" text-anchor="middle" font-family="sans-serif" font-size="14" font-weight="bold" fill="#FFD700">$600</text>
    <rect x="180" y="80" width="56" height="36" rx="4" fill="#2871cc"/>
    <text x="208" y="104" text-anchor="middle" font-family="sans-serif" font-size="14" font-weight="bold" fill="#FFD700">$600</text>
    <rect x="240" y="80" width="56" height="36" rx="4" fill="#2871cc"/>
    <text x="268" y="104" text-anchor="middle" font-family="sans-serif" font-size="14" font-weight="bold" fill="#FFD700">$600</text>
    <rect x="300" y="80" width="56" height="36" rx="4" fill="#2871cc"/>
    <text x="328" y="104" text-anchor="middle" font-family="sans-serif" font-size="14" font-weight="bold" fill="#FFD700">$600</text>

    <rect x="0" y="120" width="56" height="36" rx="4" fill="#2871cc"/>
    <text x="28" y="144" text-anchor="middle" font-family="sans-serif" font-size="14" font-weight="bold" fill="#FFD700">$800</text>
    <rect x="60" y="120" width="56" height="36" rx="4" fill="#2871cc"/>
    <text x="88" y="144" text-anchor="middle" font-family="sans-serif" font-size="14" font-weight="bold" fill="#FFD700">$800</text>
    <rect x="120" y="120" width="56" height="36" rx="4" fill="#2871cc"/>
    <text x="148" y="144" text-anchor="middle" font-family="sans-serif" font-size="14" font-weight="bold" fill="#FFD700">$800</text>
    <rect x="180" y="120" width="56" height="36" rx="4" fill="#2871cc"/>
    <text x="208" y="144" text-anchor="middle" font-family="sans-serif" font-size="14" font-weight="bold" fill="#FFD700">$800</text>
    <rect x="240" y="120" width="56" height="36" rx="4" fill="#2871cc"/>
    <text x="268" y="144" text-anchor="middle" font-family="sans-serif" font-size="14" font-weight="bold" fill="#FFD700">$800</text>
    <rect x="300" y="120" width="56" height="36" rx="4" fill="#2871cc"/>
    <text x="328" y="144" text-anchor="middle" font-family="sans-serif" font-size="14" font-weight="bold" fill="#FFD700">$800</text>
  </g>
  <text x="200" y="280" text-anchor="middle" font-family="sans-serif" font-size="16" fill="#ccc">Custom Questions • Multiple Rounds</text>
</svg>
